PathFileType	4	(X/Y/Z)	C:\Users\Ali Mert BOSTAN\Desktop\Yazýlým\Hacettepe-Bil-D-nem-Proje\basket_Sports2D\basket_Sports2D_px_person00.trc
DataRate	CameraRate	NumFrames	NumMarkers	Units	OrigDataRate	OrigDataStartFrame	OrigNumFrames
120.0	120.0	5	22	m	120.0	33	266
Frame#	Time	Hip			RHip			RKnee			RAnkle			RBigToe			RSmallToe			RHeel			LHip			LKnee			LAnkle			LBigToe			LSmallToe			LHeel			Neck			Head			Nose			RShoulder			RElbow			RWrist			LShoulder			LElbow			LWrist		
		X1	Y1	Z1	X2	Y2	Z2	X3	Y3	Z3	X4	Y4	Z4	X5	Y5	Z5	X6	Y6	Z6	X7	Y7	Z7	X8	Y8	Z8	X9	Y9	Z9	X10	Y10	Z10	X11	Y11	Z11	X12	Y12	Z12	X13	Y13	Z13	X14	Y14	Z14	X15	Y15	Z15	X16	Y16	Z16	X17	Y17	Z17	X18	Y18	Z18	X19	Y19	Z19	X20	Y20	Z20	X21	Y21	Z21	X22	Y22	Z22
33	0.275	368.4598138309369	600.3125727840486	0.0	372.61477227374627	597.952022253191	0.0	385.459047720453	789.5909667690154	0.0	368.2345277461749	985.2181337318387	0.0	444.00440930097443	1010.4013661848272	0.0	430.9513284125668	1019.9864590391034	0.0	345.81032458546605	1006.3914701112486	0.0	367.51680087835257	596.4209788533783	0.0	372.31549760289107	786.4650742257306	0.0	365.6944729461266	976.7378347291357	0.0	439.84537275160847	1001.9820943110059	0.0	433.9548227983823	998.1350576646446	0.0	333.23693301788035	998.3418698972489	0.0	401.22622596766917	348.6933452863089	0.0	433.9395632849655	235.1234742057188	0.0	459.5036260075859	304.05823680070324	0.0	396.8271210778615	375.31289856600216	0.0	444.0434064991216	492.7214964616479	0.0	527.7281181547214	450.25161910178065	0.0	380.66949916598014	374.40576816668096	0.0	424.8058248946862	489.79676962470467	0.0	519.1423522054931	456.00206476331545	0.0
34	0.2833333333333333	368.4195991457937	600.5046953518236	0.0	372.76389854914936	598.1018792171104	0.0	386.1500931569145	789.6940663629758	0.0	368.50835256501773	985.4048569610258	0.0	444.1419644418749	1010.3340171223794	0.0	431.09365421897246	1020.0387076520269	0.0	346.0890370958155	1006.5540625777878	0.0	367.1591188200078	596.5752717439921	0.0	372.02747702761883	786.6135881710337	0.0	365.0547484199709	976.9682490792314	0.0	439.8294078456254	1001.8716914078303	0.0	433.8238116147313	998.170119084713	0.0	333.0453609210279	998.4992266876226	0.0	401.13523822068106	348.587797085601	0.0	433.5461778306928	235.065096207317	0.0	459.2735704018587	303.9413413452585	0.0	397.0293705426843	375.2984051213971	0.0	444.7700406592983	492.56092696013616	0.0	528.1614931288341	449.89283199520617	0.0	380.27142025431334	374.3355977253955	0.0	424.6804299605403	489.5749627371652	0.0	519.2791542473241	455.7230117059436	0.0
35	0.2916666666666667	368.3672505007323	600.7124679292968	0.0	372.8793575483567	598.2571039691974	0.0	386.78739131817935	789.8258456379285	0.0	368.7173184359702	985.6165291537169	0.0	444.26272973584213	1010.2816481454076	0.0	431.2168155290238	1020.1022953614797	0.0	346.35189107541925	1006.7376849234311	0.0	366.8461440088318	596.7214222599537	0.0	371.85403967216195	786.7560293207017	0.0	364.5347435037154	977.2277673732672	0.0	439.7916915583833	1001.7954060016509	0.0	433.6909836443091	998.253034964549	0.0	332.88528278800896	998.6816586338591	0.0	401.0435500446253	348.4935478577108	0.0	433.1691073239505	234.98606366717337	0.0	459.0533653675761	303.82738604506056	0.0	397.2565063588221	375.2683685061264	0.0	445.5175153984467	492.39588638361124	0.0	528.6081035842277	449.54253014386177	0.0	379.86601793523744	374.26049066539156	0.0	424.56197180685933	489.3701320282558	0.0	519.4554642819774	455.46310538720434	0.0
36	0.3	368.30646430480357	600.9278869836337	0.0	372.9685225840277	598.4109254736819	0.0	387.3960411614427	789.9896836422445	0.0	368.8924781812167	985.8467215976507	0.0	444.37941007325725	1010.2373994369043	0.0	431.3311805040473	1020.1708019336164	0.0	346.6148153935242	1006.9371073799662	0.0	366.57410771341443	596.8533990420232	0.0	371.79422983196974	786.8964073609432	0.0	364.1187251285044	977.502073606336	0.0	439.735770788245	1001.7535633776254	0.0	433.56291497795854	998.3690821826195	0.0	332.7820372633004	998.8825970841708	0.0	400.95404775445934	348.4110672493869	0.0	432.81342491810045	234.8880241282135	0.0	458.84972417968055	303.7168558345731	0.0	397.4945899098398	375.2216388326518	0.0	446.27874968255105	492.2149187812368	0.0	529.0676970698456	449.1860864356298	0.0	379.4576117703085	374.1769986619883	0.0	424.4623039760861	489.18416058363925	0.0	519.6785978280734	455.21417330129003	0.0
37	0.30833333333333335	368.24399882592064	601.1423539565048	0.0	373.0410841552935	598.557259541668	0.0	387.98123241072784	790.1826947808083	0.0	369.05979765533743	986.0921445523301	0.0	444.5016817898566	1010.1970372349484	0.0	431.4457159742903	1020.240914279082	0.0	346.88574545558413	1007.1474452096102	0.0	366.346153649383	596.9693072419904	0.0	371.84621124990537	787.0349059122378	0.0	363.79699443404263	977.7735680555783	0.0	439.6785477163755	1001.7420051169964	0.0	433.45166045389885	998.49619595319	0.0	332.75220454165617	999.0929300792682	0.0	400.8726610461783	348.3384177292721	0.0	432.48047532129385	234.77371661924627	0.0	458.665739163074	303.6042075134391	0.0	397.72239284018315	375.16036428094003	0.0	447.04687891013043	492.0089471819444	0.0	529.5366727678489	448.8070221272173	0.0	379.0648395883019	374.08815639093973	0.0	424.40535902083633	489.01341720168193	0.0	519.9563183109019	454.9619026989227	0.0
